<svg width="24" height="25" viewBox="0 0 24 25" fill="none" xmlns="http://www.w3.org/2000/svg">
<path d="M17.5 2.5H8C5.79086 2.5 4 4.29086 4 6.5V18.5C4 20.7091 5.79086 22.5 8 22.5H17.5C19.7091 22.5 21.5 20.7091 21.5 18.5V6.5C21.5 4.29086 19.7091 2.5 17.5 2.5Z" stroke="white" stroke-width="1.5"/>
<path d="M10.59 14.2408C9.96125 14.662 8.31261 15.5221 9.31674 16.5983C9.80725 17.124 10.3536 17.5 11.0404 17.5H14.9596C15.6464 17.5 16.1928 17.124 16.6833 16.5983C17.6874 15.5221 16.0388 14.662 15.41 14.2408C13.9355 13.2531 12.0645 13.2531 10.59 14.2408Z" stroke="white" stroke-width="1.5"/>
<path d="M15 9.5C15 10.6046 14.1046 11.5 13 11.5C11.8954 11.5 11 10.6046 11 9.5C11 8.39543 11.8954 7.5 13 7.5C14.1046 7.5 15 8.39543 15 9.5Z" stroke="white" stroke-width="1.5"/>
<path d="M5 6.5H2.5M5 12.5H2.5M5 18.5H2.5" stroke="white" stroke-width="1.5" stroke-linecap="round" stroke-linejoin="round"/>
</svg>
