<svg width="41" height="41" viewBox="0 0 41 41" fill="none" xmlns="http://www.w3.org/2000/svg">
<rect x="0.931152" y="0.186523" width="40" height="40" rx="20" fill="#0D0D0D" fill-opacity="0.1"/>
<rect x="1.43115" y="0.686523" width="39" height="39" rx="19.5" stroke="#0D0D0D" stroke-opacity="0.24"/>
<path d="M29.2646 23.678C29.2646 26.7114 27.4562 28.5197 24.4229 28.5197H23.4312C22.9729 28.5197 22.5979 28.1447 22.5979 27.6864V22.878C22.5979 22.653 22.7812 22.4614 23.0062 22.4614L24.4729 22.4364C24.5896 22.428 24.6896 22.3447 24.7146 22.228L25.0062 20.6364C25.0312 20.4864 24.9146 20.3447 24.7562 20.3447L22.9812 20.3697C22.7479 20.3697 22.5646 20.1864 22.5562 19.9614L22.5229 17.9197C22.5229 17.7864 22.6312 17.6697 22.7729 17.6697L24.7729 17.6364C24.9146 17.6364 25.0229 17.528 25.0229 17.3864L24.9896 15.3864C24.9896 15.2447 24.8812 15.1364 24.7396 15.1364L22.4896 15.1697C21.1062 15.1947 20.0062 16.328 20.0312 17.7114L20.0729 20.003C20.0812 20.2364 19.8979 20.4197 19.6646 20.428L18.6646 20.4447C18.5229 20.4447 18.4146 20.553 18.4146 20.6947L18.4396 22.278C18.4396 22.4197 18.5479 22.528 18.6896 22.528L19.6896 22.5114C19.9229 22.5114 20.1062 22.6947 20.1146 22.9197L20.1896 27.6697C20.1979 28.1364 19.8229 28.5197 19.3562 28.5197H17.4396C14.4062 28.5197 12.5979 26.7114 12.5979 23.6697V16.6947C12.5979 13.6614 14.4062 11.853 17.4396 11.853H24.4229C27.4562 11.853 29.2646 13.6614 29.2646 16.6947V23.678Z" fill="#0D0D0D"/>
</svg>
