<svg width="48" height="48" viewBox="0 0 48 48" fill="none" xmlns="http://www.w3.org/2000/svg">
<path d="M21.89 44C13.1142 44 6 36.8366 6 28C6 23.8324 7.91658 19.6649 10.4185 16C10.9319 19 13.1505 24.8 17.9176 24C12.67 13 21.89 4 21.89 4C21.89 4 22.8832 11 31.8214 18C32.649 18.6481 33.3714 19.3161 34 20" stroke="#FABB18" stroke-width="3" stroke-linecap="round" stroke-linejoin="round"/>
<path d="M31.0708 32.404C31.0708 31.015 30.8554 29.0912 31.6718 27.8408C33.4754 25.079 37.2026 25.5594 38.525 28.2012C39.1262 29.522 38.9032 31.0754 38.9338 32.3856M31.0708 32.404C29.3726 32.5798 28.6404 33.6838 28.3536 34.5654C28.065 35.6462 27.8246 38.288 28.2092 41.1698C28.5458 42.971 29.8132 43.8072 30.9448 43.9078C32.0268 44.0038 36.5956 43.9798 37.9182 43.9798C39.9678 43.9798 41.1702 43.4514 41.7714 41.29C42.0598 39.6088 42.132 36.4866 41.651 34.5654C41.1194 32.962 39.849 32.496 38.9338 32.3856M31.0708 32.404C33.633 32.1386 36.3698 32.0766 38.9338 32.3856" stroke="#FABB18" stroke-width="3" stroke-linecap="round"/>
</svg>
