<svg width="41" height="41" viewBox="0 0 41 41" fill="none" xmlns="http://www.w3.org/2000/svg">
<rect x="0.931152" y="0.186523" width="40" height="40" rx="20" fill="#0D0D0D" fill-opacity="0.1"/>
<rect x="1.43115" y="0.686523" width="39" height="39" rx="19.5" stroke="#0D0D0D" stroke-opacity="0.24"/>
<path d="M24.4229 11.853H17.4396C14.4062 11.853 12.5979 13.6614 12.5979 16.6947V23.6697C12.5979 26.7114 14.4062 28.5197 17.4396 28.5197H24.4146C27.4479 28.5197 29.2562 26.7114 29.2562 23.678V16.6947C29.2646 13.6614 27.4562 11.853 24.4229 11.853ZM20.9312 23.4197C19.1479 23.4197 17.6979 21.9697 17.6979 20.1864C17.6979 18.403 19.1479 16.953 20.9312 16.953C22.7146 16.953 24.1646 18.403 24.1646 20.1864C24.1646 21.9697 22.7146 23.4197 20.9312 23.4197ZM25.8646 15.9197C25.8229 16.0197 25.7646 16.1114 25.6896 16.1947C25.6062 16.2697 25.5146 16.328 25.4146 16.3697C25.3146 16.4114 25.2062 16.4364 25.0979 16.4364C24.8729 16.4364 24.6646 16.353 24.5062 16.1947C24.4312 16.1114 24.3729 16.0197 24.3312 15.9197C24.2896 15.8197 24.2646 15.7114 24.2646 15.603C24.2646 15.4947 24.2896 15.3864 24.3312 15.2864C24.3729 15.178 24.4312 15.0947 24.5062 15.0114C24.6979 14.8197 24.9896 14.728 25.2562 14.7864C25.3146 14.7947 25.3646 14.8114 25.4146 14.8364C25.4646 14.853 25.5146 14.878 25.5646 14.9114C25.6062 14.9364 25.6479 14.978 25.6896 15.0114C25.7646 15.0947 25.8229 15.178 25.8646 15.2864C25.9062 15.3864 25.9312 15.4947 25.9312 15.603C25.9312 15.7114 25.9062 15.8197 25.8646 15.9197Z" fill="#0D0D0D"/>
</svg>
