<svg width="48" height="49" viewBox="0 0 48 49" fill="none" xmlns="http://www.w3.org/2000/svg">
<path d="M23.9964 4.5C17.9809 4.5 14.0804 8.53798 9.46742 10.0098C7.59178 10.6083 6.65395 10.9075 6.27441 11.3293C5.89487 11.7511 5.78373 12.3675 5.56145 13.6003C3.18287 26.792 8.3818 38.988 20.7806 43.735C22.1128 44.245 22.7788 44.5 24.003 44.5C25.227 44.5 25.8932 44.245 27.2252 43.735C39.6232 38.9878 44.8172 26.792 42.438 13.6003C42.2156 12.3673 42.1044 11.7508 41.7248 11.329C41.3452 10.9072 40.4074 10.6081 38.5318 10.01C33.917 8.5383 30.0122 4.5 23.9964 4.5Z" stroke="#14B082" stroke-width="3" stroke-linecap="round" stroke-linejoin="round"/>
<path d="M20.6742 21.2598C18.5143 21.2598 17.4343 22.8198 17.1943 23.7798C16.9543 24.7398 16.9543 28.2198 17.0983 29.6598C17.5783 31.4598 18.7783 32.2038 19.9543 32.4438C21.0342 32.5398 25.5942 32.5038 26.9142 32.5038C28.8342 32.5398 30.2742 31.8198 30.8742 29.6598C30.9942 28.9398 31.1142 24.9798 30.8142 23.7798C30.1782 21.8598 28.5942 21.2598 27.3942 21.2598H20.6742Z" stroke="#14B082" stroke-width="3" stroke-linecap="round"/>
<path d="M20.5 20.4171C20.5 20.2971 20.5164 19.6062 20.5192 18.7371C20.5218 17.9429 20.452 17.1771 20.8312 16.4763C22.252 13.6491 26.332 13.9371 27.34 16.8171C27.5146 17.2912 27.5252 18.0429 27.52 18.7371C27.5134 19.6241 27.532 20.4171 27.532 20.4171" stroke="#14B082" stroke-width="3" stroke-linecap="round"/>
</svg>
