<svg width="48" height="48" viewBox="0 0 48 48" fill="none" xmlns="http://www.w3.org/2000/svg">
<path d="M28.982 31H29M19 31H19.0179" stroke="#008EFF" stroke-width="4" stroke-linecap="round" stroke-linejoin="round"/>
<path d="M8.53562 37.6894C8.98538 41.03 11.7523 43.647 15.1193 43.8018C17.9525 43.932 20.8306 44 24 44C27.1694 44 30.0474 43.932 32.8806 43.8018C36.2478 43.647 39.0146 41.03 39.4644 37.6894C39.758 35.5094 40 33.2752 40 31C40 28.7248 39.758 26.4906 39.4644 24.3106C39.0146 20.97 36.2478 18.353 32.8806 18.1982C30.0474 18.0679 27.1694 18 24 18C20.8306 18 17.9525 18.0679 15.1193 18.1982C11.7523 18.353 8.98538 20.97 8.53562 24.3106C8.2421 26.4906 8 28.7248 8 31C8 33.2752 8.2421 35.5094 8.53562 37.6894Z" stroke="#008EFF" stroke-width="3"/>
<path d="M15 18V13C15 8.02944 19.0294 4 24 4C28.9706 4 33 8.02944 33 13V18" stroke="#008EFF" stroke-width="3" stroke-linecap="round" stroke-linejoin="round"/>
</svg>
