<svg width="32" height="32" viewBox="0 0 32 32" fill="none" xmlns="http://www.w3.org/2000/svg">
<circle cx="16" cy="16" r="16" fill="#E2F0FC"/>
<path d="M16 8C14.9494 8 13.9091 8.20693 12.9385 8.60896C11.9679 9.011 11.086 9.60028 10.3431 10.3431C8.84285 11.8434 8 13.8783 8 16C8 18.1217 8.84285 20.1566 10.3431 21.6569C11.086 22.3997 11.9679 22.989 12.9385 23.391C13.9091 23.7931 14.9494 24 16 24C18.1217 24 20.1566 23.1571 21.6569 21.6569C23.1571 20.1566 24 18.1217 24 16C24 15.072 23.832 14.152 23.512 13.288L22.232 14.568C22.344 15.04 22.4 15.52 22.4 16C22.4 17.6974 21.7257 19.3253 20.5255 20.5255C19.3253 21.7257 17.6974 22.4 16 22.4C14.3026 22.4 12.6747 21.7257 11.4745 20.5255C10.2743 19.3253 9.6 17.6974 9.6 16C9.6 14.3026 10.2743 12.6747 11.4745 11.4745C12.6747 10.2743 14.3026 9.6 16 9.6C16.48 9.6 16.96 9.656 17.432 9.768L18.72 8.48C17.848 8.168 16.928 8 16 8ZM21.6 8L18.4 11.2V12.4L16.36 14.44C16.24 14.4 16.12 14.4 16 14.4C15.5757 14.4 15.1687 14.5686 14.8686 14.8686C14.5686 15.1687 14.4 15.5757 14.4 16C14.4 16.4243 14.5686 16.8313 14.8686 17.1314C15.1687 17.4314 15.5757 17.6 16 17.6C16.4243 17.6 16.8313 17.4314 17.1314 17.1314C17.4314 16.8313 17.6 16.4243 17.6 16C17.6 15.88 17.6 15.76 17.56 15.64L19.6 13.6H20.8L24 10.4H21.6V8ZM16 11.2C14.727 11.2 13.5061 11.7057 12.6059 12.6059C11.7057 13.5061 11.2 14.727 11.2 16C11.2 17.273 11.7057 18.4939 12.6059 19.3941C13.5061 20.2943 14.727 20.8 16 20.8C17.273 20.8 18.4939 20.2943 19.3941 19.3941C20.2943 18.4939 20.8 17.273 20.8 16H19.2C19.2 16.8487 18.8629 17.6626 18.2627 18.2627C17.6626 18.8629 16.8487 19.2 16 19.2C15.1513 19.2 14.3374 18.8629 13.7373 18.2627C13.1371 17.6626 12.8 16.8487 12.8 16C12.8 15.1513 13.1371 14.3374 13.7373 13.7373C14.3374 13.1371 15.1513 12.8 16 12.8V11.2Z" fill="#48AEE8"/>
</svg>
