<svg width="41" height="41" viewBox="0 0 41 41" fill="none" xmlns="http://www.w3.org/2000/svg">
<rect x="0.931152" y="0.186523" width="40" height="40" rx="20" fill="#0D0D0D" fill-opacity="0.1"/>
<rect x="1.43115" y="0.686523" width="39" height="39" rx="19.5" stroke="#0D0D0D" stroke-opacity="0.24"/>
<g clip-path="url(#clip0_427_3102)">
<path d="M30.1236 16.2536L27.7876 18.5895C27.3157 24.0598 22.7025 28.3114 17.1814 28.3114C16.047 28.3114 15.1118 28.1317 14.4017 27.777C13.829 27.4903 13.5947 27.1833 13.5361 27.0958C13.4838 27.0174 13.45 26.9283 13.437 26.835C13.424 26.7417 13.4323 26.6467 13.4613 26.5571C13.4902 26.4675 13.539 26.3855 13.604 26.3174C13.6691 26.2493 13.7487 26.1968 13.8368 26.1637C13.8572 26.1559 15.7306 25.4364 16.9204 24.0669C16.2606 23.5243 15.6846 22.8872 15.2111 22.1762C14.2423 20.738 13.1579 18.2395 13.4923 14.5059C13.5029 14.3873 13.5472 14.2741 13.6199 14.1798C13.6927 14.0855 13.7909 14.014 13.9029 13.9736C14.015 13.9332 14.1362 13.9256 14.2524 13.9519C14.3686 13.9781 14.4749 14.037 14.5587 14.1215C14.5861 14.1489 17.1587 16.7075 20.304 17.5372V17.0614C20.3028 16.5625 20.4015 16.0684 20.5941 15.6082C20.7868 15.148 21.0696 14.7309 21.4259 14.3817C21.7719 14.0362 22.1836 13.7635 22.6368 13.5796C23.0899 13.3958 23.5752 13.3046 24.0642 13.3114C24.7201 13.3179 25.3632 13.4939 25.9309 13.8225C26.4986 14.151 26.9716 14.6209 27.304 15.1864H29.6814C29.8051 15.1863 29.926 15.2229 30.0289 15.2916C30.1317 15.3602 30.2119 15.4579 30.2593 15.5721C30.3066 15.6864 30.319 15.8122 30.2948 15.9335C30.2707 16.0548 30.2111 16.1662 30.1236 16.2536Z" fill="#0D0D0D"/>
</g>
<defs>
<clipPath id="clip0_427_3102">
<rect width="20" height="20" fill="white" transform="translate(10.9312 10.1865)"/>
</clipPath>
</defs>
</svg>
