<svg width="32" height="32" viewBox="0 0 32 32" fill="none" xmlns="http://www.w3.org/2000/svg">
<circle cx="16" cy="16" r="16" fill="#E2F0FC"/>
<path d="M17.094 7.72727C20.2962 7.72727 22.8711 10.4391 22.8711 13.7727C22.8711 16.1909 21.5259 18.255 19.5699 19.2223V23.2727H13.7928V20.6818H12.9675C12.0514 20.6818 11.3169 19.9132 11.3169 18.9545V16.3636H10.0789C9.73228 16.3636 9.53421 15.9318 9.73228 15.6641L11.3169 13.4791C11.4737 10.275 13.9826 7.72727 17.094 7.72727ZM17.094 6C13.3059 6 10.1697 8.95364 9.71578 12.8227L8.4283 14.6364H8.40354L8.38704 14.6623C7.93312 15.3186 7.87535 16.1823 8.23023 16.8991C8.52734 17.495 9.05553 17.9095 9.66626 18.0391V18.9545C9.66626 20.5523 10.7226 21.9082 12.1422 22.2968V25H21.2205V20.25C23.2838 18.8077 24.5217 16.4155 24.5217 13.7727C24.5217 9.48045 21.1875 6 17.094 6ZM20.3952 12.7623C20.3952 14.0923 19.2728 15.1545 17.5727 16.7695L17.094 17.2273L16.6153 16.7695C14.9152 15.1545 13.7928 14.0923 13.7928 12.7623C13.7928 11.7259 14.5851 10.8709 15.5754 10.8623H15.6085C16.1779 10.8623 16.7226 11.13 17.094 11.5791C17.4654 11.13 18.0101 10.8623 18.5795 10.8623C19.5699 10.8536 20.3952 11.6914 20.3952 12.7277V12.7623Z" fill="#48AEE8"/>
</svg>
