<svg width="32" height="32" viewBox="0 0 32 32" fill="none" xmlns="http://www.w3.org/2000/svg">
<circle cx="16" cy="16" r="16" fill="#E2F0FC"/>
<path d="M16.0554 13.4547C15.4727 13.4547 14.9139 13.7056 14.5019 14.1523C14.0899 14.5989 13.8584 15.2047 13.8584 15.8363C13.8584 16.4679 14.0899 17.0737 14.5019 17.5203C14.9139 17.967 15.4727 18.2179 16.0554 18.2179C16.638 18.2179 17.1968 17.967 17.6088 17.5203C18.0208 17.0737 18.2523 16.4679 18.2523 15.8363C18.2523 15.2047 18.0208 14.5989 17.6088 14.1523C17.1968 13.7056 16.638 13.4547 16.0554 13.4547ZM16.0554 19.8056C15.0843 19.8056 14.1529 19.3874 13.4663 18.643C12.7796 17.8986 12.3938 16.889 12.3938 15.8363C12.3938 14.7836 12.7796 13.774 13.4663 13.0296C14.1529 12.2852 15.0843 11.867 16.0554 11.867C17.0265 11.867 17.9578 12.2852 18.6445 13.0296C19.3311 13.774 19.7169 14.7836 19.7169 15.8363C19.7169 16.889 19.3311 17.8986 18.6445 18.643C17.9578 19.3874 17.0265 19.8056 16.0554 19.8056ZM16.0554 9.88234C12.3938 9.88234 9.26689 12.3513 8 15.8363C9.26689 19.3214 12.3938 21.7903 16.0554 21.7903C19.7169 21.7903 22.8438 19.3214 24.1107 15.8363C22.8438 12.3513 19.7169 9.88234 16.0554 9.88234Z" fill="#48AEE8"/>
</svg>
